The Avengers 1080p BRRip [Tamil + English Audio]


Video
ID                                       : 1
Format                                   : AVC
Format/Info                              : Advanced Video Codec
Format profile                           : High@L4.1
Format settings, CABAC                   : Yes
Format settings, ReFrames                : 3 frames
Format settings, GOP                     : M=1, N=3
Codec ID                                 : avc1
Codec ID/Info                            : Advanced Video Coding
Duration                                 : 2h 22mn
Bit rate mode                            : Variable
Bit rate                                 : 3 496 Kbps
Maximum bit rate                         : 62.5 Mbps
Width                                    : 1 920 pixels
Height                                   : 1 080 pixels
Display aspect ratio                     : 16:9
Frame rate mode                          : Constant
Frame rate                               : 23.976 fps
Color space                              : YUV
Chroma subsampling                       : 4:2:0
Bit depth                                : 8 bits
Scan type                                : Progressive
Bits/(Pixel*Frame)                       : 0.070
Stream size                              : 3.49 GiB (84%)
Title                                    : The Avengers
Writing library                          : x264 core 120 r2120 0c7dab9
Encoded date                             : UTC 2012-08-22 01:23:36
Tagged date                              : UTC 2012-08-30 09:02:31


Audio #1
ID                                       : 2
Format                                   : AAC
Format/Info                              : Advanced Audio Codec
Format profile                           : LC
Codec ID                                 : 40
Duration                                 : 2h 22mn
Bit rate mode                            : Variable
Bit rate                                 : 320 Kbps
Maximum bit rate                         : 332 Kbps
Channel(s)                               : 6 channels
Channel positions                        : Front: L C R, Side: L R, LFE
Sampling rate                            : 48.0 KHz
Compression mode                         : Lossy
Stream size                              : 327 MiB (8%)
Language                                 : English
Encoded date                             : UTC 2012-08-30 09:01:15
Tagged date                              : UTC 2012-08-30 09:02:31

Audio #2
ID                                       : 3
Format                                   : AAC
Format/Info                              : Advanced Audio Codec
Format profile                           : LC
Codec ID                                 : 67
Duration                                 : 2h 22mn
Bit rate mode                            : Variable
Bit rate                                 : 317 Kbps
Maximum bit rate                         : 325 Kbps
Channel(s)                               : 2 channels
Channel positions                        : Front: L R
Sampling rate                            : 48.0 KHz
Compression mode                         : Lossy
Stream size                              : 324 MiB (8%)
Encoded date                             : UTC 2012-08-30 09:02:05
Tagged date                              : UTC 2012-08-30 09:02:31



Sample:

 
http://zexzex.com/imagehosting/view.php?filename=209sc1.png
 
http://zexzex.com/imagehosting/view.php?filename=294sc2.png
 
http://zexzex.com/imagehosting/view.php?filename=795sc3.png

